<svg xmlns="http://www.w3.org/2000/svg" width="10.513" height="10.52" viewBox="0 0 10.513 10.52">
  <path id="패스_101" data-name="패스 101" d="M1069.951,899a.138.138,0,0,1-.087-.031c-.2-.164-4.9-4.06-4.9-7.23a2.546,2.546,0,0,1,1.828-2.69,2.946,2.946,0,0,1,3.158,1.567,2.9,2.9,0,0,1,3.137-1.548,2.55,2.55,0,0,1,1.856,2.671c0,1.337-.828,2.963-2.461,4.831a23.5,23.5,0,0,1-2.442,2.4.137.137,0,0,1-.087.03Zm-2.574-9.739a2.16,2.16,0,0,0-2.138,2.477c0,2.806,4.062,6.387,4.712,6.937.65-.554,4.712-4.133,4.712-6.937a2.232,2.232,0,0,0-1.639-2.4,2.667,2.667,0,0,0-2.949,1.628.139.139,0,0,1-.125.08.142.142,0,0,1-.125-.078,2.906,2.906,0,0,0-2.445-1.711Z" transform="translate(-1064.694 -888.732)" fill="none" stroke="#8d8d8d" stroke-width="0.5"/>
</svg>
