<svg xmlns="http://www.w3.org/2000/svg" width="28.693" height="28.693" viewBox="0 0 28.693 28.693">
  <g id="그룹_367" data-name="그룹 367" transform="translate(-1484 -6419.019)">
    <path id="패스_90" data-name="패스 90" d="M112.863,222.292a14.346,14.346,0,1,0-16.588,14.172V226.439H92.632v-4.147h3.643v-3.161c0-3.6,2.142-5.582,5.419-5.582a22.069,22.069,0,0,1,3.211.28v3.531H103.1a2.073,2.073,0,0,0-2.338,2.24v2.691h3.979l-.636,4.147h-3.343v10.025A14.35,14.35,0,0,0,112.863,222.292Z" transform="translate(1399.83 6211.073)" fill="#8d8d8d"/>
    <path id="패스_91" data-name="패스 91" d="M135.453,247.2l.636-4.147H132.11v-2.691a2.073,2.073,0,0,1,2.338-2.24h1.809v-3.531a22.069,22.069,0,0,0-3.211-.28c-3.277,0-5.419,1.986-5.419,5.582v3.161h-3.643V247.2h3.643v10.025a14.505,14.505,0,0,0,4.483,0V247.2Z" transform="translate(1368.478 6190.31)" fill="#fff"/>
  </g>
</svg>
