<svg xmlns="http://www.w3.org/2000/svg" width="10.516" height="10.523" viewBox="0 0 10.516 10.523">
  <g id="Untitled-1" transform="translate(-16.829 -8.494)">
    <path id="패스_102" data-name="패스 102" d="M27.158,11.151v-.1c0-.151-.049-.254-.049-.4a1.267,1.267,0,0,0-.84-1.016,2.747,2.747,0,0,0-.4-.3,1.92,1.92,0,0,0-1.581,0,3.6,3.6,0,0,0-1.285,1.016,3.816,3.816,0,0,0-.445.455h-.1a1.461,1.461,0,0,0-.593-.508,1.779,1.779,0,0,0-.252-.4,2.024,2.024,0,0,0-1.927-.656,2.3,2.3,0,0,0-1.68,1.016,2.739,2.739,0,0,0-.252.909.86.86,0,0,0,.049.606.188.188,0,0,0,.049.151,1.426,1.426,0,0,0-.049.455,1.491,1.491,0,0,0,.149.707,1.4,1.4,0,0,0,.2.707,28.046,28.046,0,0,0,2.965,3.836c.445,1.262,2.52,1.464,2.816-.051.1-.508.494-.707.79-1.016.149-.151.3-.455.494-.707a7.057,7.057,0,0,0,.988-.707,1.212,1.212,0,0,0,.347-1.464,7.54,7.54,0,0,0,.593-1.464.925.925,0,0,0,.01-1.055Z" transform="translate(-0.386 -0.247)" fill="#e65959"/>
    <path id="패스_103" data-name="패스 103" d="M22.09,18.767c-.049,0-.049,0-.1-.05-.2-.149-4.89-4.076-4.89-7.209a2.5,2.5,0,0,1,1.809-2.684,2.989,2.989,0,0,1,3.178,1.54,2.864,2.864,0,0,1,3.13-1.541,2.546,2.546,0,0,1,1.858,2.684c0,1.342-.832,2.933-2.445,4.822a22.884,22.884,0,0,1-2.445,2.386C22.188,18.767,22.139,18.767,22.09,18.767ZM19.548,9.022a2.157,2.157,0,0,0-.537.05A2.223,2.223,0,0,0,17.4,11.459c0,2.784,4.059,6.363,4.694,6.911.636-.547,4.694-4.131,4.694-6.911a2.253,2.253,0,0,0-1.662-2.386,2.686,2.686,0,0,0-2.934,1.64c0,.05-.049.1-.147.1-.049,0-.1-.05-.147-.1A2.71,2.71,0,0,0,19.548,9.022Z" transform="translate(0 0)" fill="#e65959" stroke="#8c8c8d" stroke-miterlimit="10" stroke-width="0.5"/>
  </g>
</svg>
