<svg xmlns="http://www.w3.org/2000/svg" width="28" height="29" viewBox="0 0 28 29">
  <g id="그룹_368" data-name="그룹 368" transform="translate(-1520 -6418.711)">
    <ellipse id="타원_8" data-name="타원 8" cx="14" cy="14.5" rx="14" ry="14.5" transform="translate(1520 6418.711)" fill="#8d8d8d"/>
    <g id="그룹_191" data-name="그룹 191" transform="translate(1524.972 6424.333)">
      <g id="그룹_190" data-name="그룹 190">
        <path id="패스_86" data-name="패스 86" d="M566.533,234.574c2.412,0,2.7.009,3.65.052a5,5,0,0,1,1.677.311,2.991,2.991,0,0,1,1.714,1.714,5,5,0,0,1,.311,1.677c.043.953.052,1.238.052,3.65s-.009,2.7-.052,3.65a5,5,0,0,1-.311,1.677,2.991,2.991,0,0,1-1.714,1.714,5,5,0,0,1-1.677.311c-.952.043-1.238.053-3.65.053s-2.7-.009-3.65-.053a5,5,0,0,1-1.677-.311,2.99,2.99,0,0,1-1.714-1.714,5,5,0,0,1-.311-1.677c-.043-.953-.052-1.238-.052-3.65s.009-2.7.052-3.65a5,5,0,0,1,.311-1.677,2.99,2.99,0,0,1,1.714-1.714,5,5,0,0,1,1.677-.311c.953-.043,1.238-.052,3.65-.052m0-1.628c-2.453,0-2.761.01-3.724.054a6.632,6.632,0,0,0-2.193.42,4.619,4.619,0,0,0-2.642,2.642,6.631,6.631,0,0,0-.42,2.193c-.044.963-.054,1.271-.054,3.724s.01,2.761.054,3.724a6.631,6.631,0,0,0,.42,2.193,4.618,4.618,0,0,0,2.642,2.642,6.632,6.632,0,0,0,2.193.42c.963.044,1.271.054,3.724.054s2.761-.01,3.724-.054a6.632,6.632,0,0,0,2.193-.42,4.619,4.619,0,0,0,2.642-2.642,6.633,6.633,0,0,0,.42-2.193c.044-.964.054-1.271.054-3.724s-.01-2.761-.054-3.724a6.633,6.633,0,0,0-.42-2.193,4.619,4.619,0,0,0-2.642-2.642,6.632,6.632,0,0,0-2.193-.42c-.963-.044-1.271-.054-3.724-.054Z" transform="translate(-557.5 -232.946)" fill="#fff"/>
        <path id="패스_87" data-name="패스 87" d="M582.814,253.622a4.638,4.638,0,1,0,4.638,4.638A4.638,4.638,0,0,0,582.814,253.622Zm0,7.649a3.011,3.011,0,1,1,3.011-3.011A3.011,3.011,0,0,1,582.814,261.271Z" transform="translate(-573.782 -249.228)" fill="#fff"/>
        <ellipse id="타원_9" data-name="타원 9" cx="1.084" cy="1.084" rx="1.084" ry="1.084" transform="translate(12.771 3.127)" fill="#fff"/>
      </g>
    </g>
  </g>
</svg>
