<svg xmlns="http://www.w3.org/2000/svg" xmlns:xlink="http://www.w3.org/1999/xlink" width="77.057" height="78.28" viewBox="0 0 77.057 78.28">
  <defs>
    <linearGradient id="linear-gradient" x1="0.75" y1="0.933" x2="0.25" y2="0.067" gradientUnits="objectBoundingBox">
      <stop offset="0" stop-color="#577dbe"/>
      <stop offset="1" stop-color="#7dccf1"/>
    </linearGradient>
    <linearGradient id="linear-gradient-2" x1="0.75" y1="0.933" x2="0.25" y2="0.067" xlink:href="#linear-gradient"/>
    <linearGradient id="linear-gradient-3" x1="0.811" y1="1.027" x2="0.223" y2="0.038" xlink:href="#linear-gradient"/>
  </defs>
  <g id="그룹_308" data-name="그룹 308" transform="translate(-300 -15)">
    <g id="그룹_156" data-name="그룹 156" transform="translate(300 15)">
      <path id="패스_78" data-name="패스 78" d="M342.778,993.47a6.671,6.671,0,1,0-6.67-6.672A6.671,6.671,0,0,0,342.778,993.47Z" transform="translate(-324.533 -974.548)" fill="url(#linear-gradient)"/>
      <path id="패스_79" data-name="패스 79" d="M338.6,991.839a3.955,3.955,0,1,0-3.955,3.955A3.956,3.956,0,0,0,338.6,991.839Z" transform="translate(-330.688 -965.74)" fill="url(#linear-gradient-2)"/>
      <path id="패스_80" data-name="패스 80" d="M392.53,982.087H368.521c0,.075.024.145.024.22a4.373,4.373,0,0,1-8.682.75,23.186,23.186,0,0,1-.607-3.146l-.034.017a2.75,2.75,0,1,0-4.762,2.185l-.009,0,.006.009c.222.2.429.427.63.651a9.81,9.81,0,1,1-16.248,8.893c-.036-.111-.094-.211-.128-.325l-.013.017a3.84,3.84,0,0,0-4.713-2.514,3.774,3.774,0,0,0-2.618,2.586,3.841,3.841,0,0,0,3.2,4.914,7.455,7.455,0,0,1-.987,14.755h-.019v12h0v18.074a14.666,14.666,0,0,0,14.623,14.623H392.53a14.666,14.666,0,0,0,14.623-14.623V996.71A14.666,14.666,0,0,0,392.53,982.087Z" transform="translate(-330.096 -977.516)" fill="url(#linear-gradient-3)"/>
    </g>
    <g id="그룹_157" data-name="그룹 157" transform="translate(313.389 50.355)">
      <path id="패스_81" data-name="패스 81" d="M342.2,1010.634a5.64,5.64,0,0,1-5.243-3.312l2.473-1.361a2.834,2.834,0,0,0,2.917,1.905h.1a2.591,2.591,0,0,0,2.548-1.435,2.009,2.009,0,0,0,.124-.767,2.275,2.275,0,0,0-.669-1.655,6.571,6.571,0,0,0-2.5-1.089c-1.928-.617-4.822-1.508-4.822-4.523l.026-.47a3.812,3.812,0,0,1,1.508-2.744,5.791,5.791,0,0,1,3.537-1.113,6.015,6.015,0,0,1,1.136.1,4.922,4.922,0,0,1,3.906,2.894l-2.473,1.384a2.362,2.362,0,0,0-1.877-1.557,2.734,2.734,0,0,0-.668-.051c-1.038,0-2.3.372-2.324,1.36v.075c0,.891.493,1.26,2.892,2a8.978,8.978,0,0,1,3.586,1.755,5.029,5.029,0,0,1,1.508,3.609,4.834,4.834,0,0,1-.32,1.779,5.328,5.328,0,0,1-5.168,3.214Z" transform="translate(-336.957 -994.07)" fill="#f4f5fb"/>
      <path id="패스_82" data-name="패스 82" d="M342.421,1002.3a8.2,8.2,0,1,1,8.207,8.184A8.219,8.219,0,0,1,342.421,1002.3Zm2.768,0a5.44,5.44,0,1,0,5.44-5.437A5.44,5.44,0,0,0,345.189,1002.3Z" transform="translate(-330.752 -994.044)" fill="#f4f5fb"/>
      <path id="패스_83" data-name="패스 83" d="M355.644,994.105a8.171,8.171,0,0,1,0,16.342h-4.97V994.105Zm-.051,13.572a5.4,5.4,0,1,0,0-10.8h-2.151v10.8Z" transform="translate(-321.379 -994.03)" fill="#f4f5fb"/>
      <path id="패스_84" data-name="패스 84" d="M368.947,1010.447H366.1l-.594-2.3h-5.44l-.594,2.3h-2.843l4.154-16.342h4Zm-4.128-5.045-2.029-7.96-2.027,7.96Z" transform="translate(-314.609 -994.03)" fill="#f4f5fb"/>
    </g>
  </g>
</svg>
