<svg xmlns="http://www.w3.org/2000/svg" width="48" height="48" viewBox="0 0 48 48">
  <g id="그룹_371" data-name="그룹 371" transform="translate(-484 -5745)">
    <path id="play-circle-icon" d="M72,48A24,24,0,1,0,96,72,24,24,0,0,0,72,48Zm9.669,24.45L65.838,82.027a.513.513,0,0,1-.773-.45V62.423a.511.511,0,0,1,.773-.45L81.669,71.55A.529.529,0,0,1,81.669,72.45Z" transform="translate(436 5697)" fill="rgba(51,51,51,0.8)"/>
    <path id="play-icon" d="M128,96.559V116.41a.521.521,0,0,0,.781.471l16.055-9.926a.556.556,0,0,0,0-.936l-16.055-9.926A.516.516,0,0,0,128,96.559Z" transform="translate(372.897 5662.566)" fill="#f6f7fc"/>
  </g>
</svg>
