<svg xmlns="http://www.w3.org/2000/svg" width="57.61" height="63.327" viewBox="0 0 57.61 63.327">
  <g id="그룹_307" data-name="그룹 307" transform="translate(-300 -6472)">
    <g id="그룹_203" data-name="그룹 203" transform="translate(300 6517.765)">
      <path id="패스_92" data-name="패스 92" d="M330.994-46.748a5.98,5.98,0,0,1-5.558-3.512l2.622-1.441a3,3,0,0,0,3.093,2.017h.105a2.745,2.745,0,0,0,2.7-1.521,2.15,2.15,0,0,0,.131-.812,2.414,2.414,0,0,0-.709-1.757,6.968,6.968,0,0,0-2.646-1.153c-2.047-.655-5.112-1.6-5.112-4.8l.026-.5a4.053,4.053,0,0,1,1.6-2.91,6.161,6.161,0,0,1,3.75-1.179,6.174,6.174,0,0,1,1.2.105,5.222,5.222,0,0,1,4.141,3.067l-2.62,1.467a2.507,2.507,0,0,0-1.993-1.65,2.908,2.908,0,0,0-.707-.054c-1.1,0-2.438.393-2.464,1.441v.079c0,.943.524,1.336,3.065,2.122a9.564,9.564,0,0,1,3.8,1.862,5.337,5.337,0,0,1,1.6,3.827,5.121,5.121,0,0,1-.341,1.888,5.649,5.649,0,0,1-5.479,3.406Z" transform="translate(-325.436 64.311)" fill="#8d8d8d"/>
      <path id="패스_93" data-name="패스 93" d="M331.2-55.585a8.713,8.713,0,0,1,8.7-8.7,8.707,8.707,0,0,1,8.675,8.7,8.686,8.686,0,0,1-8.675,8.677A8.692,8.692,0,0,1,331.2-55.585Zm2.936,0a5.767,5.767,0,0,0,5.767,5.767,5.783,5.783,0,0,0,5.767-5.767A5.783,5.783,0,0,0,339.9-61.35,5.766,5.766,0,0,0,334.132-55.585Z" transform="translate(-318.825 64.34)" fill="#8d8d8d"/>
      <path id="패스_94" data-name="패스 94" d="M345.165-64.274A8.691,8.691,0,0,1,353.79-55.6a8.653,8.653,0,0,1-8.625,8.651H339.9V-64.274Zm-.052,14.39A5.739,5.739,0,0,0,350.88-55.6a5.761,5.761,0,0,0-5.767-5.739h-2.281v11.454Z" transform="translate(-308.839 64.353)" fill="#8d8d8d"/>
      <path id="패스_95" data-name="패스 95" d="M359.235-46.948H356.22l-.629-2.438h-5.767l-.629,2.438h-3.013l4.4-17.326h4.246ZM354.856-52.3l-2.148-8.441-2.15,8.441Z" transform="translate(-301.625 64.353)" fill="#8d8d8d"/>
    </g>
    <g id="그룹_204" data-name="그룹 204" transform="translate(305.479 6472)">
      <path id="패스_97" data-name="패스 97" d="M334.492-77.022a3.6,3.6,0,0,0,3.6-3.6,3.6,3.6,0,0,0-3.6-3.6,3.6,3.6,0,0,0-3.6,3.6A3.6,3.6,0,0,0,334.492-77.022Z" transform="translate(-324.65 87.228)" fill="#8d8d8d"/>
      <path id="패스_98" data-name="패스 98" d="M332.255-77.923a2.135,2.135,0,0,0-2.135-2.135,2.134,2.134,0,0,0-2.133,2.135,2.134,2.134,0,0,0,2.133,2.133A2.134,2.134,0,0,0,332.255-77.923Z" transform="translate(-327.987 92.002)" fill="#8d8d8d"/>
      <path id="패스_99" data-name="패스 99" d="M361.341-83.153H348.392c0,.041.013.079.013.118a2.363,2.363,0,0,1-2.363,2.363,2.359,2.359,0,0,1-2.322-1.957,12.675,12.675,0,0,1-.326-1.7l-.019.009a1.481,1.481,0,0,0-1.791-1.267,1.494,1.494,0,0,0-1.125,1.115,1.482,1.482,0,0,0,.348,1.332l0,0,0,0a4.755,4.755,0,0,1,.339.352,5.286,5.286,0,0,1,1.669,4.858,5.307,5.307,0,0,1-4.379,4.3,5.292,5.292,0,0,1-6.052-4.358c-.021-.058-.052-.114-.069-.174l-.009.009a2.069,2.069,0,0,0-2.541-1.355,2.038,2.038,0,0,0-1.413,1.394,2.072,2.072,0,0,0,1.725,2.65,4.062,4.062,0,0,1,3.241,3.918,4.059,4.059,0,0,1-3.776,4.042h-.009v6.471h0v9.749a7.91,7.91,0,0,0,7.887,7.887h23.924a7.912,7.912,0,0,0,7.889-7.887V-75.265A7.912,7.912,0,0,0,361.341-83.153Z" transform="translate(-327.666 85.619)" fill="#8d8d8d"/>
    </g>
    <path id="패스_100" data-name="패스 100" d="M341.866-58.1a7.5,7.5,0,0,1-6.978-4.412l3.293-1.811a3.772,3.772,0,0,0,3.883,2.534h.131a3.446,3.446,0,0,0,3.391-1.909,2.624,2.624,0,0,0,.165-1.02,3.028,3.028,0,0,0-.889-2.206,8.746,8.746,0,0,0-3.325-1.45c-2.569-.823-6.42-2.006-6.42-6.025l.032-.625a5.075,5.075,0,0,1,2.008-3.653,7.711,7.711,0,0,1,4.708-1.482,7.84,7.84,0,0,1,1.514.131,6.553,6.553,0,0,1,5.2,3.853l-3.293,1.843a3.152,3.152,0,0,0-2.5-2.075,3.819,3.819,0,0,0-.887-.064c-1.383,0-3.063.494-3.095,1.811v.1c0,1.186.657,1.68,3.851,2.665a12.036,12.036,0,0,1,4.775,2.339,6.7,6.7,0,0,1,2.008,4.807,6.422,6.422,0,0,1-.43,2.369A7.092,7.092,0,0,1,342.13-58.1Z" transform="translate(-14.587 6563.882)" fill="#fff"/>
  </g>
</svg>
