<svg xmlns="http://www.w3.org/2000/svg" width="29" height="29" viewBox="0 0 29 29">
  <g id="그룹_370" data-name="그룹 370" transform="translate(-1591 -6418.711)">
    <circle id="타원_10" data-name="타원 10" cx="14.5" cy="14.5" r="14.5" transform="translate(1591 6418.711)" fill="#8d8d8d"/>
    <g id="그룹_194" data-name="그룹 194" transform="translate(1596.585 6426.538)">
      <g id="그룹_193" data-name="그룹 193">
        <path id="패스_88" data-name="패스 88" d="M1013.055,258.411a10.765,10.765,0,0,0,10.839-10.839q0-.247-.011-.492a7.753,7.753,0,0,0,1.9-1.973,7.6,7.6,0,0,1-2.188.6,3.824,3.824,0,0,0,1.675-2.107,7.635,7.635,0,0,1-2.419.925A3.813,3.813,0,0,0,1016.36,248a10.815,10.815,0,0,1-7.852-3.98,3.812,3.812,0,0,0,1.179,5.086,3.784,3.784,0,0,1-1.725-.477c0,.016,0,.032,0,.049a3.811,3.811,0,0,0,3.056,3.735,3.805,3.805,0,0,1-1.72.065,3.814,3.814,0,0,0,3.559,2.646,7.643,7.643,0,0,1-4.731,1.631,7.734,7.734,0,0,1-.909-.053,10.784,10.784,0,0,0,5.839,1.711" transform="translate(-1007.216 -243.321)" fill="#fff"/>
      </g>
    </g>
  </g>
</svg>
