<svg xmlns="http://www.w3.org/2000/svg" width="29" height="29" viewBox="0 0 29 29">
  <g id="그룹_369" data-name="그룹 369" transform="translate(-1555 -6418.711)">
    <circle id="타원_11" data-name="타원 11" cx="14.5" cy="14.5" r="14.5" transform="translate(1555 6418.711)" fill="#8d8d8d"/>
    <path id="패스_89" data-name="패스 89" d="M573.729,443.055a2.4,2.4,0,0,0-1.691-1.691,70.05,70.05,0,0,0-14.947,0,2.4,2.4,0,0,0-1.691,1.691,26.711,26.711,0,0,0,0,9.208,2.4,2.4,0,0,0,1.691,1.691,70.088,70.088,0,0,0,14.947,0,2.4,2.4,0,0,0,1.691-1.691,26.711,26.711,0,0,0,0-9.208Zm-11.077,7.473V444.79l4.97,2.869Z" transform="translate(1005.1 5985.706)" fill="#fff"/>
  </g>
</svg>
